<?xml version="1.0" standalone="yes"?>
<svg id="arc-9-53db433d34ec8adecc3d7d192a11c550" viewBox="-700 -800 1400 400" xmlns="http://www.w3.org/2000/svg" version="1.1"  fill="none" stroke="white"><path transform="rotate(-135)" d="M400,0 A 50,50 0 1 1 400,0 A 50,50 0 1 1 500,800 A 50,50 0 1 1 600,700 A 50,50 0 1 1 700,600 A 50,50 0 1 1 800,500 A 50,50 0 1 1 0,400 A 50,50 0 1 1 100,300 A 50,50 0 1 1 200,200 A 50,50 0 1 1 300,100 A 50,50 0 1 1 300,200 A 50,50 0 1 1 400,100 A 50,50 0 1 1 500,0 A 50,50 0 1 1 600,800 A 50,50 0 1 1 700,700 A 50,50 0 1 1 800,600 A 50,50 0 1 1 0,500 A 50,50 0 1 1 100,400 A 50,50 0 1 1 200,300 A 50,50 0 1 1 200,400 A 50,50 0 1 1 300,300 A 50,50 0 1 1 400,200 A 50,50 0 1 1 500,100 A 50,50 0 1 1 600,0 A 50,50 0 1 1 700,800 A 50,50 0 1 1 800,700 A 50,50 0 1 1 0,600 A 50,50 0 1 1 100,500 A 50,50 0 1 1 100,600 A 50,50 0 1 1 200,500 A 50,50 0 1 1 300,400 A 50,50 0 1 1 400,300 A 50,50 0 1 1 500,200 A 50,50 0 1 1 600,100 A 50,50 0 1 1 700,0 A 50,50 0 1 1 800,800 A 50,50 0 1 1 0,700 A 50,50 0 1 1 0,800 A 50,50 0 1 1 100,700 A 50,50 0 1 1 200,600 A 50,50 0 1 1 300,500 A 50,50 0 1 1 400,400 A 50,50 0 1 1 500,300 A 50,50 0 1 1 600,200 A 50,50 0 1 1 700,100 A 50,50 0 1 1 800,0 A 50,50 0 1 1 800,100 A 50,50 0 1 1 0,0 A 50,50 0 1 1 100,800 A 50,50 0 1 1 200,700 A 50,50 0 1 1 300,600 A 50,50 0 1 1 400,500 A 50,50 0 1 1 500,400 A 50,50 0 1 1 600,300 A 50,50 0 1 1 700,200 A 50,50 0 1 1 700,300 A 50,50 0 1 1 800,200 A 50,50 0 1 1 0,100 A 50,50 0 1 1 100,0 A 50,50 0 1 1 200,800 A 50,50 0 1 1 300,700 A 50,50 0 1 1 400,600 A 50,50 0 1 1 500,500 A 50,50 0 1 1 600,400 A 50,50 0 1 1 600,500 A 50,50 0 1 1 700,400 A 50,50 0 1 1 800,300 A 50,50 0 1 1 0,200 A 50,50 0 1 1 100,100 A 50,50 0 1 1 200,0 A 50,50 0 1 1 300,800 A 50,50 0 1 1 400,700 A 50,50 0 1 1 500,600 A 50,50 0 1 1 500,700 A 50,50 0 1 1 600,600 A 50,50 0 1 1 700,500 A 50,50 0 1 1 800,400 A 50,50 0 1 1 0,300 A 50,50 0 1 1 100,200 A 50,50 0 1 1 200,100 A 50,50 0 1 1 300,0 A 50,50 0 1 1 400,800 A 50,50 0 1 1 400,0 "></path></svg>