<?xml version="1.0" standalone="yes"?>
<svg id="arc-4-19" class="order-x pad" viewBox="-200 -170 680 680" style="fill: none; stroke: #FFFFFF; stroke-width: 6px;" xmlns="http://www.w3.org/2000/svg" version="1.1"><path class="lines arc" d="M200,200 A 50,50 0 1 1 200,200 A 50,50 0 1 1 0,200 A 50,50 0 1 1 300,0 A 50,50 0 1 1 100,300 A 50,50 0 1 1 100,0 A 50,50 0 1 1 300,100 A 50,50 0 1 1 0,300 A 50,50 0 1 1 200,100 A 50,50 0 1 1 100,100 A 50,50 0 1 1 300,300 A 50,50 0 1 1 0,100 A 50,50 0 1 1 200,0 A 50,50 0 1 1 200,300 A 50,50 0 1 1 0,0 A 50,50 0 1 1 300,200 A 50,50 0 1 1 100,200 A 50,50 0 1 1 200,200 "/></svg>