<?xml version="1.0" standalone="yes"?>
<svg id="quadvertex-4-19" class="order-x" style="fill: none; stroke: #FFFFFF; stroke-width: 4px;" viewBox="-2 -2 304 304" xmlns="http://www.w3.org/2000/svg" version="1.1"><path class="lines" d="M 100,200 Q 0,200 150,100 Q 300,0 200,150 Q 100,300 100,150 Q 100,0 200,50 Q 300,100 150,200 Q 0,300 100,200 Q 200,100 150,100 Q 100,100 200,200 Q 300,300 150,200 Q 0,100 100,50 Q 200,0 200,150 Q 200,300 100,150 Q 0,0 150,100 Q 300,200 200,200 Q 100,200 150,200 Q 200,200 100,200 "></path></svg>