<svg xmlns="http://www.w3.org/2000/svg" xmlns:svg="http://www.w3.org/2000/svg" xmlns:xlink="http://www.w3.org/1999/xlink" id="arc-4R-277" class="order-x" version="1.1" viewBox="-70 -70 440 440" style="fill:none;stroke:#fff;stroke-width:4px"><animateTransform fill="freeze" attributeName="transform" attributeType="XML" begin="0s" dur="10s" from="360 0 0" repeatCount="indefinite" to="0 0 0" type="rotate" xlink:href="#arc-4R-277"/><path d="M300,200 A 50,50 0 1 1 300,200 A 50,50 0 1 1 0,0 A 50,50 0 1 1 100,300 A 50,50 0 1 1 200,100 A 50,50 0 1 1 200,200 A 50,50 0 1 1 100,0 A 50,50 0 1 1 0,300 A 50,50 0 1 1 300,100 A 50,50 0 1 1 0,100 A 50,50 0 1 1 200,300 A 50,50 0 1 1 300,0 A 50,50 0 1 1 100,200 A 50,50 0 1 1 100,100 A 50,50 0 1 1 300,300 A 50,50 0 1 1 200,0 A 50,50 0 1 1 0,200 A 50,50 0 1 1 300,200" class="lines arc"/></svg>